{"title":"[Rec] 2-2009.DVDRIP.H264-ZEKTORM","uid":5401964,"size":738718217,"categoryP":"video","categoryS":"movies","magnet":"?xt=urn:btih:80d294144ac26eeb88637a4d646001e8757754cc&amp;dn=%5BRec%5D+2-2009.DVDRIP.H264-ZEKTORM&amp;tr=udp%3A%2F%2Ftracker.openbittorrent.com%3A80&amp;tr=udp%3A%2F%2Fopen.demonii.com%3A1337&amp;tr=udp%3A%2F%2Ftracker.coppersurfer.tk%3A6969&amp;tr=udp%3A%2F%2Fexodus.desync.com%3A6969","seeders":0,"leechers":0,"uploader":"blowley","files":6,"time":1267459635,"description":"Title                            : [Rec] 2\nYear                             : 2009\nGenre                            : Drama | Horror | Thriller\niMDB URL                         : http://www.imdb.com/title/tt1245112/\nAwards                           : 6 wins &amp; 1 nomination\n\nComplete name                    : [Rec].2.2009.DVDRIP.H264-ZEKTORM.mp4\nFormat                           : MPEG-4\nFormat profile                   : Base Media\nCodec ID                         : isom\nFile size                        : 701 MiB\nDuration                         : 1h 20mn\nOverall bit rate                 : 1211 Kbps\nSubtitles                        : English (Format: VobSub/srt)\n\nVideo\nID                               : 1\nFormat                           : AVC\nFormat/Info                      : Advanced Video Codec\nFormat profile                   : &lt;a class=&quot;__cf_email__&quot; href=&quot;/cdn-cgi/l/email-protection&quot; data-cfemail=&quot;aee6c7c9c6eee29d809e&quot;&gt;[email&amp;#160;protected]&lt;/a&gt;&lt;script cf-hash='f9e31' type=&quot;text/javascript&quot;&gt;\n/* &lt;![CDATA[ */!function(){try{var t=&quot;currentScript&quot;in document?document.currentScript:function(){for(var t=document.getElementsByTagName(&quot;script&quot;),e=t.length;e--;)if(t[e].getAttribute(&quot;cf-hash&quot;))return t[e]}();if(t&amp;&amp;t.previousSibling){var e,r,n,i,c=t.previousSibling,a=c.getAttribute(&quot;data-cfemail&quot;);if(a){for(e=&quot;&quot;,r=parseInt(a.substr(0,2),16),n=2;a.length-n;n+=2)i=parseInt(a.substr(n,2),16)^r,e+=String.fromCharCode(i);e=document.createTextNode(e),c.parentNode.replaceChild(e,c)}}}catch(u){}}();/* ]]&gt; */&lt;/script&gt;\nFormat settings, CABAC           : Yes\nCodec ID                         : avc1\nCodec ID/Info                    : Advanced Video Coding\nDuration                         : 1h 20mn\nBit rate mode                    : Variable\nBit rate                         : 1125 Kbps\nMaximum bit rate                 : 8350 Kbps\nWidth                            : 720 pixels\nHeight                           : 384 pixels\nDisplay aspect ratio             : 1.875\nFrame rate mode                  : Constant\nFrame rate                       : 25.000 fps\nResolution                       : 24 bits\nColorimetry                      : 4:2:0\nScan type                        : Progressive\nBits/(Pixel*Frame)               : 0.163\nStream size                      : 651 MiB (93%)\nTitle                            : Video\nWriting library                  : x264\n\nAudio\nID                               : 2\nFormat                           : AAC\nFormat/Info                      : Advanced Audio Codec\nFormat version                   : Version 4\nFormat profile                   : LC\nFormat settings, SBR             : Yes\nFormat settings, PS              : No\nCodec ID                         : 40\nDuration                         : 1h 20mn\nBit rate mode                    : Variable\nBit rate                         : 83.8 Kbps\nMaximum bit rate                 : 110 Kbps\nChannel(s)                       : 2 channels\nChannel positions                : L R\nSampling rate                    : 48.0 KHz\nResolution                       : 16 bits\nStream size                      : 48.5 MiB (7%)\nLanguage                         : Spanish\n","torrent":{"xt":"urn:btih:80d294144ac26eeb88637a4d646001e8757754cc","amp;dn":"%5BRec%5D+2-2009.DVDRIP.H264-ZEKTORM","amp;tr":["udp%3A%2F%2Ftracker.openbittorrent.com%3A80","udp%3A%2F%2Fopen.demonii.com%3A1337","udp%3A%2F%2Ftracker.coppersurfer.tk%3A6969","udp%3A%2F%2Fexodus.desync.com%3A6969"],"infoHash":"80d294144ac26eeb88637a4d646001e8757754cc","infoHashBuffer":{"type":"Buffer","data":[128,210,148,20,74,194,110,235,136,99,122,77,100,96,1,232,117,119,84,204]},"announce":[],"urlList":[]}}